<?xml version="1.0" standalone="no"?><!DOCTYPE svg PUBLIC "-//W3C//DTD SVG 1.1//EN" "http://www.w3.org/Graphics/SVG/1.1/DTD/svg11.dtd"><svg t="1591168424028" class="icon" viewBox="0 0 1024 1024" version="1.1" xmlns="http://www.w3.org/2000/svg" p-id="2602" xmlns:xlink="http://www.w3.org/1999/xlink" width="200" height="200"><defs><style type="text/css"></style></defs><path d="M339.057778 613.262222l40.391111 95.516445L240.526222 768l262.087111 126.919111 262.087111-127.829333-116.906666-49.038222 58.823111-88.177778 287.061333 132.380444-491.349333 248.149334L8.533333 762.311111l330.524445-149.048889zM343.210667 53.475556l218.680889 141.084444 239.331555-100.124444-65.536 251.562666 169.813333 197.461334-259.242666 14.336L512 779.946667 417.336889 537.315556 164.522667 477.070222l200.647111-164.295111L343.267556 53.475556z m117.930666 204.970666L469.902222 362.382222 389.575111 428.088889l101.262222 24.120889 37.888 97.166222 53.816889-88.974222 103.822222-5.688889-68.039111-79.075556 26.282667-100.693333-95.857778 39.992889-87.608889-56.490667z" fill="#1296db" p-id="2603"></path></svg>